<?xml version="1.0" encoding="UTF-8" standalone="no"?>
<svg
   xmlns:dc="http://purl.org/dc/elements/1.1/"
   xmlns:cc="http://creativecommons.org/ns#"
   xmlns:rdf="http://www.w3.org/1999/02/22-rdf-syntax-ns#"
   xmlns:svg="http://www.w3.org/2000/svg"
   xmlns="http://www.w3.org/2000/svg"
   xmlns:xlink="http://www.w3.org/1999/xlink"
   xmlns:sodipodi="http://sodipodi.sourceforge.net/DTD/sodipodi-0.dtd"
   xmlns:inkscape="http://www.inkscape.org/namespaces/inkscape"
   inkscape:version="1.0 (4035a4fb49, 2020-05-01)"
   sodipodi:docname="red_power_btn_pressed.svg"
   version="1.0"
   viewBox="0 0 82 60"
   id="svg2633">
  <sodipodi:namedview
     inkscape:current-layer="svg2633"
     inkscape:window-maximized="1"
     inkscape:window-y="-8"
     inkscape:window-x="-8"
     inkscape:cy="18.864603"
     inkscape:cx="31.624331"
     inkscape:zoom="39.456558"
     inkscape:lockguides="false"
     showgrid="false"
     id="namedview82"
     inkscape:window-height="1027"
     inkscape:window-width="1920"
     inkscape:pageshadow="2"
     inkscape:pageopacity="0"
     guidetolerance="10"
     gridtolerance="10"
     objecttolerance="10"
     borderopacity="1"
     bordercolor="#666666"
     pagecolor="#ffffff" />
  <defs
     id="defs2635">
    <linearGradient
       gradientTransform="matrix(0.98494875,0,0,1.389106,-64.983155,2.6877331)"
       x1="127.2"
       x2="127.2"
       y1="18.495"
       gradientUnits="userSpaceOnUse"
       y2="47.547"
       id="linearGradient2243">
      <stop
         offset="0"
         stop-color="#fff"
         id="stop3259" />
      <stop
         offset="1"
         stop-opacity="0"
         stop-color="#fff"
         id="stop3261" />
    </linearGradient>
  </defs>
  <g
     fill-rule="evenodd"
     transform="translate(-19.315 -20.92)"
     id="layer1">
    <path
       d="m690.1 908.55a35.101 35.101 0 1 1 -70.2 0 35.101 35.101 0 1 1 70.2 0z"
       fill="#ef2929"
       transform="matrix(.62849 0 0 .62849 -351.35 -520.1)"
       id="path3676" />
    <g
       transform="matrix(.58241 0 0 .62445 -298.36 -439.03)"
       fill="#a40000"
       id="g3750">
      <path
         d="m649.09 892c-7.61 2.49-13.15 9.61-13.15 18.06 0 10.53 8.54 19.06 19.06 19.06s19.06-8.53 19.06-19.06c0-8.46-5.56-15.57-13.18-18.06v6.81c4.06 2.14 6.9 6.34 6.9 11.25 0 7.05-5.73 12.78-12.78 12.78s-12.78-5.73-12.78-12.78c0-4.9 2.81-9.11 6.87-11.25v-6.81z"
         transform="matrix(.93548 0 0 .93548 3.1009 -64.472)"
         xlink:href="#path22091"
         id="path3752" />
      <path
         d="m651.78 887.91v22.62h6.44v-22.62h-6.44z"
         transform="matrix(.93548 0 0 .93548 3.1009 -64.472)"
         xlink:href="#path22093"
         id="path3754" />
    </g>
    <g
       transform="matrix(.58241 0 0 .58241 -298.36 -406.82)"
       fill="#eeeeec"
       id="g3756">
      <path
         d="m649.09 892c-7.61 2.49-13.15 9.61-13.15 18.06 0 10.53 8.54 19.06 19.06 19.06s19.06-8.53 19.06-19.06c0-8.46-5.56-15.57-13.18-18.06v6.81c4.06 2.14 6.9 6.34 6.9 11.25 0 7.05-5.73 12.78-12.78 12.78s-12.78-5.73-12.78-12.78c0-4.9 2.81-9.11 6.87-11.25v-6.81z"
         transform="matrix(.93548 0 0 .93548 3.1009 -64.472)"
         xlink:href="#path22091"
         id="path3758" />
      <path
         d="m651.78 887.91v22.62h6.44v-22.62h-6.44z"
         transform="matrix(.93548 0 0 .93548 3.1009 -64.472)"
         xlink:href="#path22093"
         id="path3760" />
    </g>
    <path
       style="fill:url(#linearGradient2243);stroke-width:1.1697"
       d="m 82.394741,50.999452 a 22.092404,22.621212 0 1 1 -44.184808,0 22.092404,22.621212 0 1 1 44.184808,0 z"
       fill="url(#linearGradient2243)"
       opacity="0.75"
       id="path3678" />
  </g>
  <metadata
     id="metadata79">
    <rdf:RDF>
      <cc:Work>
        <dc:format>image/svg+xml</dc:format>
        <dc:type
           rdf:resource="http://purl.org/dc/dcmitype/StillImage" />
        <cc:license
           rdf:resource="http://creativecommons.org/licenses/publicdomain/" />
        <dc:publisher>
          <cc:Agent
             rdf:about="http://openclipart.org/">
            <dc:title>Openclipart</dc:title>
          </cc:Agent>
        </dc:publisher>
        <dc:title></dc:title>
        <dc:date>2006-12-08T21:31:15</dc:date>
        <dc:description>Multicolor power buttons, suitable for UI/web design.</dc:description>
        <dc:source>http://openclipart.org/detail/1944/multicolor-power-buttons-by-molumen-1944</dc:source>
        <dc:creator>
          <cc:Agent>
            <dc:title>molumen</dc:title>
          </cc:Agent>
        </dc:creator>
        <dc:subject>
          <rdf:Bag>
            <rdf:li>button</rdf:li>
            <rdf:li>clip art</rdf:li>
            <rdf:li>clipart</rdf:li>
            <rdf:li>design</rdf:li>
            <rdf:li>glossy</rdf:li>
            <rdf:li>icon</rdf:li>
            <rdf:li>interface</rdf:li>
            <rdf:li>off</rdf:li>
            <rdf:li>power</rdf:li>
            <rdf:li>red</rdf:li>
            <rdf:li>remix</rdf:li>
            <rdf:li>switch</rdf:li>
            <rdf:li>toggle</rdf:li>
            <rdf:li>webdesign</rdf:li>
          </rdf:Bag>
        </dc:subject>
      </cc:Work>
      <cc:License
         rdf:about="http://creativecommons.org/licenses/publicdomain/">
        <cc:permits
           rdf:resource="http://creativecommons.org/ns#Reproduction" />
        <cc:permits
           rdf:resource="http://creativecommons.org/ns#Distribution" />
        <cc:permits
           rdf:resource="http://creativecommons.org/ns#DerivativeWorks" />
      </cc:License>
    </rdf:RDF>
  </metadata>
</svg>
